<svg width="23" height="23" viewBox="0 0 23 23" fill="none" xmlns="http://www.w3.org/2000/svg">
<g id="icn bxs-star">
<path id="Vector" d="M21.0967 8.4193C21.039 8.24949 20.9329 8.10028 20.7914 7.99009C20.6499 7.8799 20.4793 7.81356 20.3005 7.79925L15.0714 7.38374L12.8086 2.37473C12.7365 2.2134 12.6193 2.07637 12.4711 1.98019C12.3228 1.884 12.15 1.83277 11.9733 1.83267C11.7966 1.83258 11.6236 1.88362 11.4753 1.97964C11.327 2.07566 11.2096 2.21256 11.1374 2.37381L8.87455 7.38374L3.64539 7.79925C3.4697 7.81317 3.30174 7.87741 3.1616 7.98428C3.02147 8.09116 2.91509 8.23615 2.85519 8.4019C2.7953 8.56765 2.78442 8.74715 2.82387 8.91892C2.86332 9.09069 2.95142 9.24746 3.07763 9.37047L6.94193 13.1376L5.57526 19.0555C5.53376 19.2347 5.54706 19.4222 5.61343 19.5936C5.6798 19.7651 5.79618 19.9127 5.94747 20.0172C6.09876 20.1217 6.27797 20.1784 6.46184 20.1798C6.64571 20.1812 6.82576 20.1273 6.97862 20.0251L11.973 16.6955L16.9673 20.0251C17.1235 20.1288 17.3078 20.1822 17.4953 20.1781C17.6828 20.174 17.8645 20.1125 18.0161 20.0021C18.1676 19.8916 18.2817 19.7373 18.3429 19.5601C18.4042 19.3828 18.4097 19.1911 18.3587 19.0106L16.6811 13.1403L20.8417 9.39616C21.1141 9.15034 21.2141 8.76693 21.0967 8.4193Z" fill="#F3CD03"/>
</g>
</svg>
