<svg width="23" height="23" viewBox="0 0 23 23" fill="none" xmlns="http://www.w3.org/2000/svg">
<g id="icn bx-star">
<path id="Vector" d="M5.99772 13.1376L4.63104 19.0556C4.58872 19.2348 4.60143 19.4226 4.6675 19.5945C4.73357 19.7664 4.84993 19.9143 5.00139 20.019C5.15286 20.1237 5.33237 20.1803 5.5165 20.1814C5.70062 20.1825 5.8808 20.1281 6.03349 20.0252L11.0278 16.6956L16.0222 20.0252C16.1784 20.1289 16.3627 20.1823 16.5502 20.1782C16.7377 20.1741 16.9194 20.1126 17.0709 20.0022C17.2225 19.8917 17.3365 19.7374 17.3978 19.5602C17.4591 19.3829 17.4646 19.1912 17.4136 19.0107L15.736 13.1404L19.8966 9.39625C20.0298 9.27626 20.125 9.11985 20.1703 8.94635C20.2156 8.77286 20.209 8.58989 20.1515 8.42007C20.0939 8.25026 19.9878 8.10104 19.8463 7.99088C19.7048 7.88072 19.5342 7.81445 19.3554 7.80026L14.1263 7.38383L11.8634 2.37482C11.7913 2.21353 11.674 2.07657 11.5257 1.98046C11.3774 1.88436 11.2045 1.83322 11.0278 1.83322C10.8511 1.83322 10.6782 1.88436 10.53 1.98046C10.3817 2.07657 10.2644 2.21353 10.1922 2.37482L7.92942 7.38383L2.70027 7.79934C2.52457 7.81326 2.35661 7.8775 2.21647 7.98438C2.07634 8.09125 1.96996 8.23624 1.91006 8.40199C1.85017 8.56774 1.83929 8.74724 1.87874 8.91901C1.91819 9.09078 2.00629 9.24755 2.1325 9.37056L5.99772 13.1376ZM8.61459 9.16969C8.77831 9.15679 8.93555 9.10009 9.06982 9.00552C9.20409 8.91095 9.31044 8.782 9.37773 8.63219L11.0278 4.98068L12.6779 8.63219C12.7452 8.782 12.8516 8.91095 12.9859 9.00552C13.1201 9.10009 13.2774 9.15679 13.4411 9.16969L17.0843 9.45862L14.0841 12.159C13.8236 12.3938 13.7199 12.7552 13.8153 13.0927L14.9646 17.1148L11.5378 14.8299C11.3874 14.729 11.2104 14.6751 11.0292 14.6751C10.8481 14.6751 10.671 14.729 10.5206 14.8299L6.93972 17.2175L7.90282 13.0478C7.93813 12.8944 7.93339 12.7345 7.88906 12.5835C7.84472 12.4325 7.76228 12.2955 7.64966 12.1856L4.8631 9.46871L8.61459 9.16969Z" fill="#F3CD03"/>
</g>
</svg>
